<?xml version="1.0" encoding="UTF-8" standalone="no"?>
<svg
   xmlns:dc="http://purl.org/dc/elements/1.1/"
   xmlns:cc="http://creativecommons.org/ns#"
   xmlns:rdf="http://www.w3.org/1999/02/22-rdf-syntax-ns#"
   xmlns:svg="http://www.w3.org/2000/svg"
   xmlns="http://www.w3.org/2000/svg"
   xmlns:sodipodi="http://sodipodi.sourceforge.net/DTD/sodipodi-0.dtd"
   xmlns:inkscape="http://www.inkscape.org/namespaces/inkscape"
   version="1.1"
   viewBox="0 0 1153.6 330.32"
   id="svg3386"
   inkscape:version="0.91 r13725"
   sodipodi:docname="moustache.svg">
  <metadata
     id="metadata3396">
    <rdf:RDF>
      <cc:Work
         rdf:about="">
        <dc:format>image/svg+xml</dc:format>
        <dc:type
           rdf:resource="http://purl.org/dc/dcmitype/StillImage" />
      </cc:Work>
    </rdf:RDF>
  </metadata>
  <defs
     id="defs3394" />
  <sodipodi:namedview
     pagecolor="#ffffff"
     bordercolor="#666666"
     borderopacity="1"
     objecttolerance="10"
     gridtolerance="10"
     guidetolerance="10"
     inkscape:pageopacity="0"
     inkscape:pageshadow="2"
     inkscape:window-width="1366"
     inkscape:window-height="742"
     id="namedview3392"
     showgrid="false"
     inkscape:zoom="1.0445562"
     inkscape:cx="314.9663"
     inkscape:cy="60.605608"
     inkscape:window-x="0"
     inkscape:window-y="0"
     inkscape:window-maximized="1"
     inkscape:current-layer="svg3386" />
  <g
     transform="translate(91.065 -452.42)"
     id="g3388">
    <path
       d="m378.71 462.27c-12.054 0.17393-25.171 1.6426-39.323 4.6752-113.21 24.26-153.6 139.52-226.38 186.02-72.781 46.499-146.68 24.143-157.71 3.9999-11.025-20.143-8.1176-42.413 10.078-54.544 29.808-19.872 32.363 22.233 32.363 22.233s6.1382-70.155-54.596-36.414c-36.39 20.217-35.472 98.772 26.285 143.53 77.674 56.291 187.28 43.939 279 26.285 84.053-16.177 184.51-67.011 228.46-117.24 3.3886-3.8727 6.349-7.9051 8.8828-12.052 2.5306 4.1384 5.4485 8.186 8.8309 12.052 43.953 50.232 144.41 101.07 228.46 117.24 91.726 17.654 201.28 30.006 278.95-26.285 61.757-44.755 62.675-123.31 26.285-143.53-60.734-33.741-54.544 36.414-54.544 36.414s2.5028-42.105 32.311-22.233c18.195 12.13 21.155 34.401 10.13 54.544s-84.928 42.499-157.71-3.9999c-72.78-46.52-113.21-161.78-226.43-186.04-80.1-17.16-125.74 16.4-146.33 44.57-16.96-23.18-50.85-50.05-107.01-49.24z"
       stroke="#000"
       stroke-width="1.6623px"
       id="path3390" />
  </g>
  <path
     style="fill:#ffa700;fill-opacity:0"
     d="M 184.76746,320.22973 C 144.95124,317.04708 114.32722,309.30589 86.557219,295.404 56.898985,280.55684 33.62634,258.71939 21.3143,234.18453 7.6216897,206.89854 5.8028496,175.93944 16.632079,154.48687 c 4.956999,-9.81976 11.452811,-15.95005 22.525173,-21.25764 5.317022,-2.54874 11.689001,-5.10924 14.159956,-5.69001 21.309297,-5.00844 34.113076,7.57085 35.760363,35.13338 0.554362,9.27562 -0.564588,10.76122 -1.828971,2.4283 -1.417917,-9.3448 -7.073349,-17.86653 -12.884962,-19.41535 -9.859045,-2.62747 -24.606325,6.94278 -30.63591,19.88118 -5.132429,11.01327 -3.605066,28.3247 3.482666,39.47321 9.336072,14.68499 45.208805,24.82629 77.805776,21.99586 21.76329,-1.88973 41.29213,-7.28401 60.70864,-16.76901 27.98636,-13.67141 47.90438,-31.08355 83.24739,-72.77404 32.84997,-38.749716 38.62526,-45.2568 52.69551,-59.372654 23.22277,-23.298043 42.03994,-37.258472 65.9953,-48.961798 39.6808,-19.3859532 87.71016,-24.8046815 125.47358,-14.156074 11.52169,3.248911 30.05655,12.402777 39.45899,19.487731 4.20231,3.166538 11.36743,9.673637 15.92249,14.46022 l 8.28192,8.702877 8.37676,-8.828038 C 596.099,37.314367 606.12752,29.958039 620.32046,23.045692 639.54113,13.6847 657.68699,9.7031573 681.17564,9.6929203 725.8552,9.6734477 769.14492,25.064667 805.12662,53.762427 c 21.12931,16.852002 35.64586,31.943577 71.56525,74.400053 43.38892,51.28544 61.20121,67.31972 91.1833,82.08144 19.20681,9.45649 38.87173,14.89577 60.70863,16.79188 32.597,2.83043 68.4697,-7.31087 77.8058,-21.99586 7.0877,-11.14851 8.615,-28.45994 3.4826,-39.47321 -6.0295,-12.9384 -20.7768,-22.50865 -30.6359,-19.88118 -5.8116,1.54882 -11.467,10.07055 -12.885,19.41535 -1.2643,8.33292 -2.3833,6.84732 -1.8289,-2.4283 1.41,-23.59231 10.6583,-36.18931 26.5691,-36.18931 7.0464,0 12.6636,1.62277 23.3512,6.74594 7.5643,3.62598 10.6922,5.75537 14.3781,9.78849 10.2036,11.16428 14.853,24.6304 14.9502,43.29959 0.2313,44.44088 -28.2124,84.87289 -76.7283,109.06724 -51.8236,25.84394 -115.23346,31.62758 -205.17327,18.71397 -21.56852,-3.09683 -50.12219,-8.31101 -65.33099,-11.93011 -81.68189,-19.43703 -177.25976,-71.53074 -213.19336,-116.19879 -3.2348,-4.02109 -6.18009,-7.31106 -6.54509,-7.31106 -0.36501,0 -3.3103,3.28997 -6.5451,7.31106 -6.98985,8.68888 -18.27832,19.49678 -30.79133,29.4805 -46.05567,36.74626 -119.86493,71.83696 -182.40202,86.71829 -25.18247,5.99243 -70.13367,13.28435 -100.49325,16.30188 -14.47244,1.43846 -61.42318,2.58897 -71.80083,1.75944 z"
     id="path3398"
     inkscape:connector-curvature="0" />
  <path
     style="fill:#ffa700;fill-opacity:0"
     d="M 179.92892,319.85986 C 130.93337,315.76211 91.047451,302.15786 59.1217,278.65506 36.403524,261.9306 19.552429,237.45165 12.556127,211.01102 9.330571,198.8209 8.8844316,177.61643 11.643798,167.6491 c 4.537863,-16.39159 13.262934,-27.59141 26.62955,-34.18265 10.2663,-5.06243 16.95368,-6.98827 24.175663,-6.96214 5.619577,0.0203 11.370029,1.92615 14.943367,4.95252 6.155972,5.21369 10.075112,14.80374 11.443772,28.0027 1.183465,11.41296 0.168693,14.91078 -1.664246,5.73649 -1.906682,-9.54337 -5.563351,-15.69365 -10.942272,-18.40417 -3.888275,-1.95935 -4.835659,-2.07903 -9.029549,-1.14066 -6.003926,1.34338 -12.65406,5.62514 -18.039248,11.61476 -10.175306,11.31739 -11.545322,28.71131 -3.514478,44.62032 6.928725,13.72572 26.358517,22.29982 56.994273,25.15076 33.62403,3.12902 71.72194,-7.43698 103.70379,-28.76103 20.61904,-13.74784 34.58893,-27.59841 69.51439,-68.92068 24.96888,-29.542075 36.73904,-42.60959 50.05576,-55.573135 36.40219,-35.436755 70.62015,-53.704536 115.70839,-61.772696 11.67158,-2.0885306 38.86219,-2.8714298 49.78191,-1.43337 31.53383,4.152808 58.00212,17.449733 78.02952,39.199839 l 7.56945,8.220551 3.5543,-4.28972 c 23.4668,-28.322356 59.36714,-44.0195123 100.67528,-44.0195123 39.25377,0 77.62312,11.9393443 110.67118,34.4374163 25.905,17.635313 44.5316,36.236587 88.2226,88.102667 38.19396,45.34047 59.25429,64.00529 88.03517,78.02166 24.07999,11.72699 45.84683,16.9058 71.32213,16.96903 33.9228,0.0842 60.6862,-9.78314 68.5325,-25.26705 9.6312,-19.00622 5.1734,-40.69952 -10.5021,-51.10747 -16.1179,-10.70168 -25.7275,-6.32984 -31.2739,14.22802 l -1.8579,6.8856 0.4004,-9.57345 c 1.1926,-28.5196 15.1061,-40.94232 38.084,-34.00349 20.1808,6.09416 31.1225,16.15148 37.4683,34.43988 2.3886,6.88404 2.9099,10.09148 3.2908,20.24893 0.6801,18.13298 -2.616,33.34066 -10.8111,49.88153 -27.5663,55.63903 -97.0003,87.90617 -189.06541,87.86186 -41.45276,-0.0199 -108.77884,-8.85769 -152.54859,-20.02468 -63.58736,-16.22307 -132.46406,-49.5918 -178.21389,-86.33935 -12.01642,-9.65192 -27.47686,-24.96266 -32.93911,-32.62017 l -3.20218,-4.4891 -4.31408,5.86026 c -5.72715,7.77979 -19.56748,21.41035 -31.41281,30.93672 -45.6299,36.69693 -114.79034,70.25703 -178.23893,86.49043 -25.6617,6.56557 -67.51046,13.70184 -101.72148,17.34606 -21.0377,2.24097 -64.83443,3.25853 -81.2301,1.88728 z"
     id="path4200"
     inkscape:connector-curvature="0" />
  <path
     style="fill:#ffa700;fill-opacity:0"
     d="M 179.92892,319.85986 C 130.93337,315.76211 91.047451,302.15786 59.1217,278.65506 36.403524,261.9306 19.552429,237.45165 12.556127,211.01102 9.330571,198.8209 8.8844316,177.61643 11.643798,167.6491 c 4.537863,-16.39159 13.262934,-27.59141 26.62955,-34.18265 10.2663,-5.06243 16.95368,-6.98827 24.175663,-6.96214 5.619577,0.0203 11.370029,1.92615 14.943367,4.95252 6.155972,5.21369 10.075112,14.80374 11.443772,28.0027 1.183465,11.41296 0.168693,14.91078 -1.664246,5.73649 -1.906682,-9.54337 -5.563351,-15.69365 -10.942272,-18.40417 -3.888275,-1.95935 -4.835659,-2.07903 -9.029549,-1.14066 -6.003926,1.34338 -12.65406,5.62514 -18.039248,11.61476 -10.175306,11.31739 -11.545322,28.71131 -3.514478,44.62032 6.928725,13.72572 26.358517,22.29982 56.994273,25.15076 33.62403,3.12902 71.72194,-7.43698 103.70379,-28.76103 20.61904,-13.74784 34.58893,-27.59841 69.51439,-68.92068 24.96888,-29.542075 36.73904,-42.60959 50.05576,-55.573135 36.40219,-35.436755 70.62015,-53.704536 115.70839,-61.772696 11.67158,-2.0885306 38.86219,-2.8714298 49.78191,-1.43337 31.53383,4.152808 58.00212,17.449733 78.02952,39.199839 l 7.56945,8.220551 3.5543,-4.28972 c 23.4668,-28.322356 59.36714,-44.0195123 100.67528,-44.0195123 39.25377,0 77.62312,11.9393443 110.67118,34.4374163 25.905,17.635313 44.5316,36.236587 88.2226,88.102667 38.19396,45.34047 59.25429,64.00529 88.03517,78.02166 24.07999,11.72699 45.84683,16.9058 71.32213,16.96903 33.9228,0.0842 60.6862,-9.78314 68.5325,-25.26705 9.6312,-19.00622 5.1734,-40.69952 -10.5021,-51.10747 -16.1179,-10.70168 -25.7275,-6.32984 -31.2739,14.22802 l -1.8579,6.8856 0.4004,-9.57345 c 1.1926,-28.5196 15.1061,-40.94232 38.084,-34.00349 20.1808,6.09416 31.1225,16.15148 37.4683,34.43988 2.3886,6.88404 2.9099,10.09148 3.2908,20.24893 0.6801,18.13298 -2.616,33.34066 -10.8111,49.88153 -27.5663,55.63903 -97.0003,87.90617 -189.06541,87.86186 -41.45276,-0.0199 -108.77884,-8.85769 -152.54859,-20.02468 -63.58736,-16.22307 -132.46406,-49.5918 -178.21389,-86.33935 -12.01642,-9.65192 -27.47686,-24.96266 -32.93911,-32.62017 l -3.20218,-4.4891 -4.31408,5.86026 c -5.72715,7.77979 -19.56748,21.41035 -31.41281,30.93672 -45.6299,36.69693 -114.79034,70.25703 -178.23893,86.49043 -25.6617,6.56557 -67.51046,13.70184 -101.72148,17.34606 -21.0377,2.24097 -64.83443,3.25853 -81.2301,1.88728 z"
     id="path4202"
     inkscape:connector-curvature="0" />
  <path
     style="fill:#bb3800;fill-opacity:1;stroke:#ffffff;stroke-opacity:1;stroke-width:10;stroke-miterlimit:4;stroke-dasharray:none"
     d="M 179.92892,319.85986 C 130.93337,315.76211 91.047451,302.15786 59.1217,278.65506 36.403524,261.9306 19.552429,237.45165 12.556127,211.01102 9.330571,198.8209 8.8844316,177.61643 11.643798,167.6491 c 4.537863,-16.39159 13.262934,-27.59141 26.62955,-34.18265 10.2663,-5.06243 16.95368,-6.98827 24.175663,-6.96214 5.619577,0.0203 11.370029,1.92615 14.943367,4.95252 6.155972,5.21369 10.075112,14.80374 11.443772,28.0027 1.183465,11.41296 0.168693,14.91078 -1.664246,5.73649 -1.906682,-9.54337 -5.563351,-15.69365 -10.942272,-18.40417 -3.888275,-1.95935 -4.835659,-2.07903 -9.029549,-1.14066 -6.003926,1.34338 -12.65406,5.62514 -18.039248,11.61476 -10.175306,11.31739 -11.545322,28.71131 -3.514478,44.62032 6.928725,13.72572 26.358517,22.29982 56.994273,25.15076 33.62403,3.12902 71.72194,-7.43698 103.70379,-28.76103 20.61904,-13.74784 34.58893,-27.59841 69.51439,-68.92068 24.96888,-29.542075 36.73904,-42.60959 50.05576,-55.573135 36.40219,-35.436755 70.62015,-53.704536 115.70839,-61.772696 11.67158,-2.0885306 38.86219,-2.8714298 49.78191,-1.43337 31.53383,4.152808 58.00212,17.449733 78.02952,39.199839 l 7.56945,8.220551 3.5543,-4.28972 c 23.4668,-28.322356 59.36714,-44.0195123 100.67528,-44.0195123 39.25377,0 77.62312,11.9393443 110.67118,34.4374163 25.905,17.635313 44.5316,36.236587 88.2226,88.102667 38.19396,45.34047 59.25429,64.00529 88.03517,78.02166 24.07999,11.72699 45.84683,16.9058 71.32213,16.96903 33.9228,0.0842 60.6862,-9.78314 68.5325,-25.26705 9.6312,-19.00622 5.1734,-40.69952 -10.5021,-51.10747 -16.1179,-10.70168 -25.7275,-6.32984 -31.2739,14.22802 l -1.8579,6.8856 0.4004,-9.57345 c 1.1926,-28.5196 15.1061,-40.94232 38.084,-34.00349 20.1808,6.09416 31.1225,16.15148 37.4683,34.43988 2.3886,6.88404 2.9099,10.09148 3.2908,20.24893 0.6801,18.13298 -2.616,33.34066 -10.8111,49.88153 -27.5663,55.63903 -97.0003,87.90617 -189.06541,87.86186 -41.45276,-0.0199 -108.77884,-8.85769 -152.54859,-20.02468 -63.58736,-16.22307 -132.46406,-49.5918 -178.21389,-86.33935 -12.01642,-9.65192 -27.47686,-24.96266 -32.93911,-32.62017 l -3.20218,-4.4891 -4.31408,5.86026 c -5.72715,7.77979 -19.56748,21.41035 -31.41281,30.93672 -45.6299,36.69693 -114.79034,70.25703 -178.23893,86.49043 -25.6617,6.56557 -67.51046,13.70184 -101.72148,17.34606 -21.0377,2.24097 -64.83443,3.25853 -81.2301,1.88728 z"
     id="path4204" />
</svg>
